<svg width="40" height="40" viewBox="0 0 40 40" fill="none" xmlns="http://www.w3.org/2000/svg">
<g filter="url(#filter0_d_12_106)">
<circle cx="20" cy="19" r="15.5" fill="#FDFDFD" stroke="black"/>
<path d="M15.916 19.016C15.34 19.016 14.856 18.984 14.464 18.92C14.072 18.848 13.752 18.728 13.504 18.56C13.256 18.384 13.064 18.14 12.928 17.828C12.8 17.508 12.712 17.1 12.664 16.604C12.616 16.108 12.592 15.504 12.592 14.792C12.592 14.08 12.616 13.48 12.664 12.992C12.712 12.496 12.8 12.092 12.928 11.78C13.064 11.46 13.256 11.212 13.504 11.036C13.752 10.86 14.072 10.74 14.464 10.676C14.856 10.604 15.34 10.568 15.916 10.568C16.14 10.568 16.368 10.576 16.6 10.592C16.84 10.608 17.068 10.628 17.284 10.652C17.5 10.676 17.688 10.708 17.848 10.748V11.576C17.664 11.552 17.472 11.532 17.272 11.516C17.08 11.492 16.888 11.476 16.696 11.468C16.504 11.46 16.332 11.456 16.18 11.456C15.716 11.456 15.328 11.476 15.016 11.516C14.704 11.556 14.456 11.636 14.272 11.756C14.088 11.868 13.948 12.048 13.852 12.296C13.764 12.536 13.704 12.86 13.672 13.268C13.64 13.668 13.624 14.176 13.624 14.792C13.624 15.408 13.64 15.92 13.672 16.328C13.704 16.728 13.764 17.052 13.852 17.3C13.948 17.54 14.088 17.72 14.272 17.84C14.456 17.952 14.704 18.028 15.016 18.068C15.328 18.108 15.716 18.128 16.18 18.128C16.452 18.128 16.748 18.116 17.068 18.092C17.388 18.068 17.664 18.04 17.896 18.008V18.86C17.728 18.892 17.528 18.916 17.296 18.932C17.072 18.956 16.84 18.976 16.6 18.992C16.36 19.008 16.132 19.016 15.916 19.016Z" fill="black"/>
<path d="M21.84 27.88V19.624H22.872V23.26H27.192V19.624H28.224V27.88H27.192V24.172H22.872V27.88H21.84Z" fill="black"/>
<line x1="12.6464" y1="26.9382" x2="28.9382" y2="10.6465" stroke="#E2B748"/>
</g>
<defs>
<filter id="filter0_d_12_106" x="0" y="0" width="40" height="40" filterUnits="userSpaceOnUse" color-interpolation-filters="sRGB">
<feFlood flood-opacity="0" result="BackgroundImageFix"/>
<feColorMatrix in="SourceAlpha" type="matrix" values="0 0 0 0 0 0 0 0 0 0 0 0 0 0 0 0 0 0 127 0" result="hardAlpha"/>
<feOffset dy="1"/>
<feGaussianBlur stdDeviation="2"/>
<feComposite in2="hardAlpha" operator="out"/>
<feColorMatrix type="matrix" values="0 0 0 0 0 0 0 0 0 0 0 0 0 0 0 0 0 0 0.25 0"/>
<feBlend mode="normal" in2="BackgroundImageFix" result="effect1_dropShadow_12_106"/>
<feBlend mode="normal" in="SourceGraphic" in2="effect1_dropShadow_12_106" result="shape"/>
</filter>
</defs>
</svg>
